<?xml version="1.0" encoding="UTF-8" standalone="no"?>
<!-- Created with Inkscape (http://www.inkscape.org/) -->

<svg
   xmlns:dc="http://purl.org/dc/elements/1.1/"
   xmlns:cc="http://creativecommons.org/ns#"
   xmlns:rdf="http://www.w3.org/1999/02/22-rdf-syntax-ns#"
   xmlns:svg="http://www.w3.org/2000/svg"
   xmlns="http://www.w3.org/2000/svg"
   xmlns:sodipodi="http://sodipodi.sourceforge.net/DTD/sodipodi-0.dtd"
   xmlns:inkscape="http://www.inkscape.org/namespaces/inkscape"
   width="7680"
   height="4320"
   viewBox="0 0 2032 1143"
   version="1.1"
   id="svg4675"
   inkscape:version="0.92.1 r15371"
   sodipodi:docname="双蝴蝶.svg">
  <defs
     id="defs4669" />
  <sodipodi:namedview
     id="base"
     pagecolor="#ffffff"
     bordercolor="#666666"
     borderopacity="1.0"
     inkscape:pageopacity="0.0"
     inkscape:pageshadow="2"
     inkscape:zoom="0.0875"
     inkscape:cx="4528.9322"
     inkscape:cy="411.36095"
     inkscape:document-units="px"
     inkscape:current-layer="layer1"
     showgrid="false"
     units="px"
     inkscape:window-width="1920"
     inkscape:window-height="1004"
     inkscape:window-x="0"
     inkscape:window-y="36"
     inkscape:window-maximized="1" />
  <metadata
     id="metadata4672">
    <rdf:RDF>
      <cc:Work
         rdf:about="">
        <dc:format>image/svg+xml</dc:format>
        <dc:type
           rdf:resource="http://purl.org/dc/dcmitype/StillImage" />
        <dc:title></dc:title>
      </cc:Work>
    </rdf:RDF>
  </metadata>
  <g
     inkscape:label="Layer 1"
     inkscape:groupmode="layer"
     id="layer1"
     transform="translate(0,845.99998)">
    <path
       style="opacity:1;fill:#80b3ff;stroke:#f6ff00;stroke-width:23.39630127;stroke-linecap:butt;stroke-linejoin:miter;stroke-miterlimit:4;stroke-dasharray:none;stroke-opacity:1"
       d="m 888.68298,-264.59225 c 21.38152,3.32102 60.28536,24.50776 60.28536,24.50776 0,0 -37.91066,-33.02411 -40.1185,-34.36998 -26.10662,-24.49585 -34.54336,-32.05476 -34.81827,-61.83386 1.39491,-26.25774 9.27062,-46.72384 27.27292,-70.39655 16.74004,-22.0126 34.48308,-39.09404 48.84185,-60.83534 14.90431,-22.56755 29.59012,-51.1235 38.33877,-71.66755 13.67239,-32.1061 19.37679,-51.06339 19.45189,-91.30224 0.025,-16.88014 1.5823,-37.60982 14.1894,-48.52091 9.414,-8.14827 26.3071,-11.47854 36.7236,-4.72314 22.2491,14.4294 36.7205,43.67671 48.8248,69.31715 12.1969,25.83663 17.2253,54.72239 22.8729,82.82107 8.7912,43.74025 16.0646,88.18482 17.0041,132.82757 1,47.52481 -4.7807,94.61295 -12.1362,142.06749 -7.761,50.07219 -36.1743,72.23524 -18.0241,90.8016 8.8732,9.07637 35.7927,0.19542 81.1718,-21.61413 51.1013,-24.55927 90.5087,-36.11805 137.6712,-47.2981 35.2084,-8.34594 71.3722,-13.23818 107.4936,-14.535 40.817,-1.46536 82.9741,-3.60504 122.2962,7.67307 26.3262,7.55094 57.949,15.51707 72.5318,39.14976 13.8209,22.39755 8.1032,40.43744 -1.9003,56.11737 -27.6792,43.38502 -93.6126,40.6779 -136.9222,67.584617 -27.8775,17.319179 -47.6958,28.382362 -78.3565,59.931747 -19.5745,20.1417156 -26.273,31.556501 -61.9578,56.954048 -45.6022,27.773716 -75.9271,7.379126 -109.7811,-7.005966 -23.8042,-10.115078 -57.846,-52.454234 -57.846,-52.454234 0,0 26.9336,30.7073761 53.4674,65.079818 16.5328,21.4165 25.1071,50.715649 22.5405,77.55548 -2.8089,29.37757 -20.9051,56.51458 -40.2858,78.40502 -16.3061,18.41806 -38.4028,31.53423 -60.8541,41.05288 -27.4157,11.62346 -57.5371,17.91205 -87.216,18.35173 -24.6633,0.36541 -50.3669,-2.7972 -72.8786,-13.09659 -19.17188,-8.77142 -37.0028,-22.61018 -49.47675,-39.8787 -16.45165,-22.77534 -31.11064,-50.93024 -29.9557,-79.21205 2.22784,-54.564035 32.10508,-97.805266 70.05399,-147.373059 0,0 -39.56285,41.414604 -62.90919,57.431323 -21.10281,14.477561 -43.60359,29.151301 -68.55119,34.128139 -21.72435,4.333786 -46.74436,6.094615 -66.25099,-4.593251 C 776.47551,53.852683 762.09071,27.490535 751.83855,2.9684003 739.53979,-26.448928 736.9537,-59.888224 737.49372,-91.872387 c 0.49113,-29.125713 4.79139,-59.055763 15.97013,-85.853403 7.80482,-18.70955 20.45749,-35.41686 34.59978,-49.72939 13.31926,-13.47976 28.49092,-26.41043 46.14838,-32.847 17.15194,-6.2523 36.46713,-7.08651 54.47097,-4.29007 z"
       id="path97-3"
       inkscape:connector-curvature="0"
       sodipodi:nodetypes="beautyfly" />
    <path
       style="fill:#8080ff;stroke:#f6ff00;stroke-width:20.52151299;stroke-linecap:butt;stroke-linejoin:miter;stroke-miterlimit:4;stroke-dasharray:none;stroke-opacity:1"
       d="m 561.95786,-304.51021 c 13.51143,-13.59718 48.32083,-30.19025 48.32083,-30.19025 0,0 -42.27904,9.51024 -44.35144,10.37481 -30.29953,5.60542 -39.84992,7.60914 -60.10258,-8.21334 -16.99446,-15.13004 -26.66333,-31.80602 -33.16006,-57.49381 -6.04103,-23.88627 -8.22381,-45.84144 -15.33648,-67.86862 -7.38303,-22.8641 -18.92507,-48.79272 -28.1861,-66.13936 -14.47293,-27.10924 -24.2671,-41.41198 -51.39775,-63.11347 -11.38129,-9.10372 -24.56105,-21.37212 -25.28458,-36.31186 -0.54179,-11.15662 6.11419,-25.10272 16.16555,-28.96304 21.46915,-8.24547 48.84486,-2.92344 72.53758,2.16134 23.87394,5.12378 46.02838,17.04558 67.97803,28.09847 34.16815,17.20566 68.01172,35.88245 98.65097,59.22289 32.61724,24.84735 61.36591,54.33867 89.53199,85.15994 29.71976,32.52144 29.71014,64.8874 51.81244,61.81661 10.80506,-1.50122 18.99568,-25.64761 28.18584,-70.03003 10.34937,-49.97886 23.3137,-84.55032 40.62105,-124.49774 12.92054,-29.82204 28.67698,-58.47333 46.83855,-85.15989 20.52277,-30.15583 41.29625,-61.63849 69.63601,-83.86308 18.97343,-14.8793 41.01876,-33.34586 64.66209,-31.12446 22.4074,2.10533 31.5752,15.92388 36.8904,31.55671 14.7069,43.25479 -21.8704,89.23675 -26.5281,134.87259 -2.998,29.37486 -5.9727,49.58551 -0.8279,88.61821 3.2841,24.91921 7.461,35.87952 5.8031,75.21736 -5.2806,47.75186 -35.03374,58.59864 -62.58944,75.21744 -19.37572,11.6854 -65.90567,13.40074 -65.90567,13.40074 0,0 34.92966,-2.85867 72.12313,-3.45824 23.17469,-0.37389 47.47698,9.21927 64.24758,25.5047 18.3561,17.82542 27.1423,45.44437 31.7092,71.16476 3.8426,21.64058 1.0532,44.59501 -4.3524,65.86929 -6.6005,25.97818 -18.2293,51.03342 -33.5745,72.62368 -12.7516,17.94147 -28.43367,34.7336 -47.25292,45.38985 -16.02685,9.07527 -34.76888,14.4597 -53.00331,14.14452 -24.04915,-0.41543 -50.78615,-5.01517 -69.274,-21.06101 -35.66892,-30.95718 -49.12057,-75.71539 -62.58969,-129.68526 0,0 7.11342,50.74481 5.62378,76.15884 -1.3468,22.97174 -3.29695,47.05484 -13.08481,67.68185 -8.52305,17.961669 -20.52053,36.91064 -38.018,45.195662 -20.63139,9.768911 -46.0132,5.936622 -67.97447,0.121238 -26.34535,-6.977439 -50.28738,-23.106148 -71.59955,-40.70118 -19.40739,-16.02249 -37.35094,-35.21762 -49.55371,-57.67698 -8.5198,-15.6806 -13.13297,-33.77198 -15.34361,-51.64693 -2.081,-16.83487 -2.81721,-34.70703 2.14179,-50.87399 4.81797,-15.70417 14.43419,-30.0501 25.81142,-41.49922 z"
       id="path97"
       inkscape:connector-curvature="0"
       sodipodi:nodetypes="beautyfly" />
  </g>
</svg>
